HIERARCHY
ROOT Hips
{
 OFFSET 0.000000 0.000000 0.000000
 CHANNELS 6 Xposition Yposition Zposition Yrotation Xrotation Zrotation
 JOINT Chest
 {
  OFFSET 0.000000 9.585900 0.002600
  CHANNELS 3 Yrotation Xrotation Zrotation
  JOINT Chest2
  {
   OFFSET 0.000000 9.601200 -0.005300
   CHANNELS 3 Yrotation Xrotation Zrotation
   JOINT Chest3
   {
    OFFSET 0.000000 9.561800 0.000000
    CHANNELS 3 Yrotation Xrotation Zrotation
    JOINT Chest4
    {
     OFFSET 0.000000 9.552100 0.000000
     CHANNELS 3 Yrotation Xrotation Zrotation
     JOINT Neck
     {
      OFFSET 0.000000 14.453000 0.000000
      CHANNELS 3 Yrotation Xrotation Zrotation
      JOINT Head
      {
       OFFSET 0.000000 8.936500 -0.011300
       CHANNELS 3 Yrotation Xrotation Zrotation
       End Site
       {
        OFFSET 0.000000 17.073600 -0.006000
       }
      }
     }
     JOINT RightCollar
     {
      OFFSET -2.921100 9.558500 0.000000
      CHANNELS 3 Yrotation Xrotation Zrotation
      JOINT RightShoulder
      {
       OFFSET -13.519700 0.000000 0.000000
       CHANNELS 3 Yrotation Xrotation Zrotation
       JOINT RightElbow
       {
        OFFSET 0.000000 -29.696600 0.000000
        CHANNELS 3 Yrotation Xrotation Zrotation
        JOINT RightWrist
        {
         OFFSET 0.000000 -24.004700 0.000000
         CHANNELS 3 Yrotation Xrotation Zrotation
         End Site
         {
          OFFSET 0.000000 -17.728500 0.000000
         }
        }
       }
      }
     }
     JOINT LeftCollar
     {
      OFFSET 2.921100 9.558500 0.000000
      CHANNELS 3 Yrotation Xrotation Zrotation
      JOINT LeftShoulder
      {
       OFFSET 13.519700 0.000000 0.000000
       CHANNELS 3 Yrotation Xrotation Zrotation
       JOINT LeftElbow
       {
        OFFSET 0.000000 -29.696600 0.000000
        CHANNELS 3 Yrotation Xrotation Zrotation
        JOINT LeftWrist
        {
         OFFSET 0.000000 -24.004700 0.000000
         CHANNELS 3 Yrotation Xrotation Zrotation
         End Site
         {
          OFFSET 0.000000 -17.728500 0.000000
         }
        }
       }
      }
     }
    }
   }
  }
 }
 JOINT RightHip
 {
  OFFSET -7.771700 -0.012900 -0.001300
  CHANNELS 3 Yrotation Xrotation Zrotation
  JOINT RightKnee
  {
   OFFSET 0.000000 -40.869800 0.001200
   CHANNELS 3 Yrotation Xrotation Zrotation
   JOINT RightAnkle
   {
    OFFSET 0.000000 -39.717900 0.002100
    CHANNELS 3 Yrotation Xrotation Zrotation
    JOINT RightToe
    {
     OFFSET 0.000000 -4.965400 11.033500
     CHANNELS 3 Yrotation Xrotation Zrotation
     End Site
     {
      OFFSET 0.000000 -1.423100 5.872300
     }
    }
   }
  }
 }
 JOINT LeftHip
 {
  OFFSET 7.771700 -0.012900 -0.001300
  CHANNELS 3 Yrotation Xrotation Zrotation
  JOINT LeftKnee
  {
   OFFSET 0.000000 -40.869800 0.001200
   CHANNELS 3 Yrotation Xrotation Zrotation
   JOINT LeftAnkle
   {
    OFFSET 0.000000 -39.717900 0.002100
    CHANNELS 3 Yrotation Xrotation Zrotation
    JOINT LeftToe
    {
     OFFSET 0.000000 -4.965400 11.033500
     CHANNELS 3 Yrotation Xrotation Zrotation
     End Site
     {
      OFFSET 0.000000 -1.423100 5.872300
     }
    }
   }
  }
 }
}
MOTION
Frames: 12
Frame Time: 0.008333
0.000000 85.388000 0.000000 0.000000 -5.767877 0.000000 0.000000 11.653817 0.000000 0.000000 -5.885947 0.000000 0.000000 -0.000000 0.000000 0.000000 -0.000000 0.000000 0.000000 12.528835 0.000000 0.000000 0.711642 0.000000 0.000000 -0.000000 0.000000 0.000000 0.000000 -90.000000 0.000000 -2.309062 0.000000 0.000000 2.309062 0.000000 0.000000 -0.000000 0.000000 0.000000 -0.000000 90.000000 0.000000 -2.309062 0.000000 0.000000 2.309062 0.000000 0.000000 8.520406 0.000000 0.000000 1.905762 0.000000 -0.000000 -4.658285 0.000000 0.000000 -0.000000 0.000000 0.000000 8.520406 0.000000 0.000000 1.905762 0.000000 -0.000000 -4.658285 0.000000 0.000000 -0.000000 0.000000
-32.369339 57.911046 91.432187 -175.664348 -41.822230 -2.069701 -5.185044 25.579094 1.123527 -0.824808 4.236511 0.211772 -1.311546 6.743476 0.305911 -4.109825 21.061422 0.444512 2.827544 14.227069 -2.279711 6.173726 -9.191003 -5.344520 9.213670 -1.292783 -3.817377 44.755824 -49.948772 -31.194134 37.379209 -1.863218 5.168039 9.816996 7.260735 -43.201231 -12.454272 -9.210287 -4.589780 -27.706468 -51.902836 4.512933 -55.694163 11.367288 9.759012 -26.418321 3.957851 22.227517 4.847295 -28.725402 -5.901173 11.818321 78.224296 16.405299 4.222527 -6.935409 1.084037 -0.240614 0.554176 -0.111294 -12.792771 -33.496627 -7.511782 41.022162 78.855186 37.054655 -25.874572 -8.780377 -1.343744 -0.262291 -0.804198 -0.108032
-32.366938 57.912132 91.431474 -175.674949 -41.827741 -2.067403 -5.175053 25.583669 1.126984 -0.826078 4.237170 0.210534 -1.310389 6.744093 0.305749 -4.106082 21.062693 0.444092 2.831772 14.225188 -2.282946 6.191672 -9.182530 -5.374248 9.209319 -1.291934 -3.815375 44.757375 -49.946203 -31.199355 37.374608 -1.869666 5.175398 9.820710 7.259717 -43.203308 -12.461255 -9.209105 -4.587838 -27.711815 -51.905640 4.519237 -55.693689 11.371099 9.757798 -26.418945 3.949807 22.230385 4.856563 -28.720311 -5.893553 11.814029 78.223205 16.402562 4.219772 -6.932048 1.085243 -0.243515 0.552955 -0.111133 -12.789835 -33.488936 -7.500531 40.996365 78.859872 37.030222 -25.887378 -8.783600 -1.343429 -0.238666 -0.804452 -0.110108
-32.363939 57.912322 91.431637 -175.674286 -41.825034 -2.075386 -5.170039 25.581922 1.134148 -0.828589 4.234593 0.212653 -1.309567 6.742998 0.306051 -4.103644 21.061417 0.445717 2.835183 14.230172 -2.292813 6.195898 -9.179856 -5.379635 9.204344 -1.280850 -3.816095 44.765412 -49.945649 -31.208505 37.363586 -1.872863 5.177684 9.826079 7.261525 -43.201337 -12.466959 -9.205648 -4.592594 -27.712318 -51.905575 4.523240 -55.694226 11.369645 9.756932 -26.405341 3.953147 22.240552 4.853606 -28.723174 -5.884297 11.808921 78.221448 16.398111 4.228199 -6.928197 1.082478 -0.245757 0.552792 -0.109377 -12.799611 -33.490095 -7.487725 41.005688 78.864595 37.035037 -25.847803 -8.789761 -1.351259 -0.247448 -0.801237 -0.106290
-32.361782 57.912143 91.432029 -175.670505 -41.819856 -2.081054 -5.170147 25.579389 1.135173 -0.825139 4.234011 0.210693 -1.308219 6.743398 0.305620 -4.099711 21.058318 0.450487 2.835168 14.233838 -2.297227 6.194148 -9.181721 -5.374649 9.196268 -1.272977 -3.813816 44.771744 -49.948822 -31.215866 37.362592 -1.882117 5.184657 9.819891 7.272994 -43.199821 -12.474189 -9.203805 -4.590269 -27.711134 -51.904384 4.523114 -55.695682 11.363654 9.760099 -26.401293 3.955956 22.240731 4.850635 -28.727899 -5.879314 11.794860 78.220941 16.386129 4.224120 -6.927288 1.081783 -0.237512 0.556508 -0.110154 -12.810175 -33.496169 -7.479033 41.017514 78.867870 37.041632 -25.816333 -8.790865 -1.356768 -0.260257 -0.801152 -0.104219
-32.358706 57.912134 91.431949 -175.667643 -41.817068 -2.093737 -5.165135 25.580822 1.144627 -0.826784 4.231652 0.213095 -1.306245 6.747211 0.302996 -4.100303 21.056012 0.451089 2.840479 14.235984 -2.303003 6.206637 -9.182920 -5.389100 9.192406 -1.272603 -3.810661 44.773424 -49.944673 -31.216681 37.362373 -1.889431 5.181641 9.816868 7.277446 -43.191763 -12.473034 -9.203345 -4.587544 -27.708991 -51.904565 4.519652 -55.697980 11.353692 9.766747 -26.400830 3.956913 22.242071 4.843235 -28.729568 -5.866677 11.785354 78.218023 16.376798 4.238024 -6.926574 1.078661 -0.250863 0.559025 -0.108393 -12.822482 -33.498239 -7.464910 41.038425 78.871061 37.064990 -25.797497 -8.797244 -1.366019 -0.256495 -0.799452 -0.101326
-32.358327 57.911921 91.431870 -175.661232 -41.814252 -2.095709 -5.166893 25.581934 1.140145 -0.829257 4.231026 0.214934 -1.305157 6.746705 0.303230 -4.100568 21.059395 0.450888 2.846791 14.235604 -2.311287 6.210091 -9.187578 -5.396015 9.189380 -1.277798 -3.808325 44.774691 -49.942299 -31.218761 37.369559 -1.897396 5.178188 9.811007 7.280198 -43.180804 -12.472565 -9.207100 -4.584611 -27.701788 -51.905871 4.512357 -55.703017 11.345360 9.772145 -26.399142 3.954797 22.250943 4.842684 -28.732783 -5.866435 11.737934 78.223232 16.329379 4.235599 -6.924676 1.083127 -0.242450 0.557330 -0.109458 -12.829615 -33.503332 -7.464342 41.026679 78.873674 37.052283 -25.789142 -8.795128 -1.370001 -0.241818 -0.802036 -0.101612
-32.357986 57.911909 91.431307 -175.660221 -41.814657 -2.097871 -5.162562 25.586334 1.139348 -0.826891 4.232310 0.213928 -1.307326 6.744958 0.306094 -4.084701 21.070713 0.440158 2.841711 14.224740 -2.299281 6.217868 -9.189824 -5.404905 9.170692 -1.294656 -3.790048 44.773420 -49.938151 -31.220909 37.370372 -1.905449 5.178708 9.811691 7.280307 -43.177112 -12.491884 -9.216493 -4.561328 -27.690300 -51.907838 4.500048 -55.712491 11.338219 9.776702 -26.394459 3.953898 22.262842 4.845723 -28.730840 -5.865842 11.712150 78.224265 16.307628 4.237036 -6.927881 1.081203 -0.239052 0.561279 -0.107214 -12.842796 -33.507093 -7.455585 41.038808 78.879540 37.054712 -25.786847 -8.791198 -1.364783 -0.247303 -0.807911 -0.106663
-32.358842 57.911314 91.431219 -175.659569 -41.811299 -2.096604 -5.161683 25.584413 1.136618 -0.825339 4.236062 0.212202 -1.295975 6.746972 0.301288 -4.082331 21.067016 0.446696 2.835145 14.222851 -2.292148 6.228578 -9.187243 -5.417545 9.156451 -1.299194 -3.791760 44.761639 -49.940513 -31.208888 37.371102 -1.909083 5.176662 9.814357 7.274888 -43.170310 -12.502765 -9.214369 -4.555839 -27.690742 -51.909409 4.496819 -55.720592 11.330767 9.783556 -26.390330 3.956692 22.270305 4.848836 -28.733180 -5.867667 11.710051 78.223592 16.304271 4.232561 -6.931080 1.083324 -0.239820 0.565309 -0.106277 -12.842360 -33.513607 -7.460380 41.058790 78.881206 37.074673 -25.773171 -8.788284 -1.363479 -0.272565 -0.812222 -0.110355
-32.355004 57.911084 91.430516 -175.667605 -41.811270 -2.121869 -5.137998 25.587617 1.169340 -0.813896 4.238207 0.210014 -1.301711 6.744859 0.305313 -4.079536 21.066838 0.446380 2.838087 14.225733 -2.297062 6.230774 -9.185923 -5.419111 9.152049 -1.300136 -3.790998 44.749858 -49.941984 -31.202234 37.373324 -1.910129 5.177246 9.815323 7.276031 -43.166227 -12.511194 -9.210775 -4.552780 -27.694965 -51.910139 4.498821 -55.725110 11.323435 9.789128 -26.388781 3.961238 22.273041 4.839156 -28.735479 -5.831233 11.707733 78.221767 16.297287 4.260319 -6.951017 1.100150 -0.279877 0.586359 -0.122248 -12.854647 -33.508458 -7.424985 41.046907 78.888774 37.065798 -25.758983 -8.755555 -1.345034 -0.302435 -0.848386 -0.130701
-32.357219 57.910352 91.430490 -175.673150 -41.808888 -2.115888 -5.124044 25.586894 1.172575 -0.821462 4.236492 0.209326 -1.301206 6.744455 0.305227 -4.079017 21.066582 0.446107 2.849927 14.230490 -2.306784 6.228410 -9.183963 -5.418613 9.151976 -1.300192 -3.792868 44.740972 -49.941968 -31.196126 37.384266 -1.920526 5.176267 9.808552 7.285820 -43.158314 -12.513857 -9.210726 -4.555585 -27.701816 -51.906686 4.503777 -55.726129 11.320359 9.792591 -26.390405 3.963519 22.275945 4.849743 -28.738507 -5.834986 11.680734 78.223543 16.267711 4.263943 -6.950658 1.108737 -0.287434 0.586570 -0.124030 -12.846451 -33.512852 -7.430152 41.079171 78.890164 37.093241 -25.743417 -8.754553 -1.338263 -0.329714 -0.849504 -0.133906
-32.359747 57.909621 91.430540 -175.679835 -41.807238 -2.109840 -5.121707 25.585527 1.170037 -0.820360 4.236234 0.209409 -1.301159 6.744874 0.305245 -4.076844 21.066945 0.446621 2.853620 14.233166 -2.310000 6.241221 -9.178794 -5.427943 9.150993 -1.301213 -3.794137 44.735153 -49.937235 -31.189358 37.386706 -1.923422 5.171196 9.805761 7.283863 -43.152716 -12.515239 -9.213654 -4.557355 -27.702814 -51.895939 4.502997 -55.725778 11.314678 9.802541 -26.392260 3.962965 22.275276 4.862577 -28.741455 -5.841797 11.688671 78.223474 16.280671 4.251412 -6.946401 1.111678 -0.283951 0.583903 -0.124877 -12.828587 -33.514653 -7.442377 41.091214 78.887590 37.116352 -25.744259 -8.755316 -1.338347 -0.295272 -0.850391 -0.135191
